<?xml version="1.0" standalone="no"?><svg xmlns="http://www.w3.org/2000/svg" viewBox="0 0 1440 320"><path fill="#0099ff" fill-opacity="1" d="M0,224L18.5,202.7C36.9,181,74,139,111,106.7C147.7,75,185,53,222,53.3C258.5,53,295,75,332,106.7C369.2,139,406,181,443,186.7C480,192,517,160,554,149.3C590.8,139,628,149,665,170.7C701.5,192,738,224,775,234.7C812.3,245,849,235,886,218.7C923.1,203,960,181,997,170.7C1033.8,160,1071,160,1108,149.3C1144.6,139,1182,117,1218,106.7C1255.4,96,1292,96,1329,96C1366.2,96,1403,96,1422,96L1440,96L1440,320L1421.5,320C1403.1,320,1366,320,1329,320C1292.3,320,1255,320,1218,320C1181.5,320,1145,320,1108,320C1070.8,320,1034,320,997,320C960,320,923,320,886,320C849.2,320,812,320,775,320C738.5,320,702,320,665,320C627.7,320,591,320,554,320C516.9,320,480,320,443,320C406.2,320,369,320,332,320C295.4,320,258,320,222,320C184.6,320,148,320,111,320C73.8,320,37,320,18,320L0,320Z"></path></svg>